<svg width="197" height="173" viewBox="0 0 197 173" fill="none" xmlns="http://www.w3.org/2000/svg">
<rect x="0.5" y="0.5" width="196" height="172" rx="9.5" fill="#2B2B2B" stroke="#3F3F3F"/>
<rect x="60.9425" y="17.3579" width="57.3993" height="13.3077" rx="6" fill="#5B5B5B"/>
<rect x="40.392" y="38.1873" width="89.9964" height="13.3077" rx="6" fill="#363636"/>
<rect x="22.6762" y="17.3579" width="32.5971" height="13.3077" rx="6" fill="#4F4F4F"/>
<rect x="109.838" y="59.0167" width="60.9424" height="13.3077" rx="6" fill="#2D2D2D"/>
<rect x="138.183" y="38.1873" width="32.5971" height="13.3077" rx="6" fill="#4B4B4B"/>
<rect x="40.392" y="59.0167" width="65.1943" height="13.3077" rx="6" fill="#3F3F3F"/>
<rect x="124.719" y="17.3579" width="46.0612" height="13.3077" rx="6" fill="#363636"/>
<rect x="49.6044" y="141.177" width="68.7374" height="13.3077" rx="6" fill="#363636"/>
<rect x="27.6366" y="121.505" width="89.9964" height="13.3077" rx="6" fill="#2D2D2D"/>
<rect x="124.719" y="121.505" width="46.0612" height="13.3077" rx="6" fill="#363636"/>
<rect x="148.104" y="101.254" width="23.3849" height="13.3077" rx="6" fill="#363636"/>
<rect x="124.719" y="141.177" width="46.0612" height="13.3077" rx="6" fill="#4B4B4B"/>
<rect x="22.6762" y="101.254" width="121.176" height="13.3077" rx="6" fill="#737373"/>
</svg>