<svg width="50" height="50" viewBox="0 0 50 50" fill="none" xmlns="http://www.w3.org/2000/svg">
<path d="M25 0C11.25 0 0 11.5378 0 25.6395C0 36.9401 7.23438 46.5805 17.1813 49.9681C18.3594 50.1444 18.8063 49.3944 18.8063 48.7342C18.8063 48.1253 18.7844 46.5132 18.7719 44.3723C11.8188 45.9203 10.35 40.9366 10.35 40.9366C9.2125 37.9753 7.575 37.1868 7.575 37.1868C5.30625 35.5972 7.74688 35.6292 7.74688 35.6292C10.2563 35.8119 11.575 38.2701 11.575 38.2701C13.8062 42.1897 17.425 41.0584 18.85 40.4014C19.0781 38.7444 19.7219 37.6131 20.4375 36.9753C14.8875 36.3279 9.05 34.1293 9.05 24.303C9.05 21.5051 10.025 19.2168 11.6219 17.422C11.3656 16.7714 10.5063 14.1626 11.8688 10.634C11.8688 10.634 13.9688 9.94491 18.7438 13.262C20.7375 12.6947 22.875 12.4095 25 12.3999C27.1219 12.4095 29.2625 12.6947 31.2594 13.262C36.0313 9.94491 38.1281 10.634 38.1281 10.634C39.4906 14.1626 38.6344 16.7714 38.3781 17.4188C39.9813 19.2104 40.9469 21.4987 40.9469 24.2998C40.9469 34.1486 35.1031 36.3183 29.5312 36.9529C30.4281 37.7445 31.2281 39.3085 31.2281 41.7026C31.2281 45.1319 31.1969 47.8945 31.1969 48.7374C31.1969 49.404 31.6375 50.1572 32.825 49.9713C42.7687 46.5741 50 36.9401 50 25.6395C50 11.5378 38.75 0 25 0Z" fill="#7E7E7E"/>
</svg>
