<svg width="50" height="50" viewBox="0 0 50 50" fill="none" xmlns="http://www.w3.org/2000/svg">
<path fill-rule="evenodd" clip-rule="evenodd" d="M3.43543 16.7059C-1.14514 21.2866 -1.14514 28.7134 3.43543 33.2941L16.7059 46.5646C21.2866 51.1451 28.7134 51.1451 33.2941 46.5646L46.5646 33.2941C51.1451 28.7134 51.1451 21.2866 46.5646 16.7059L33.2941 3.43543C28.7134 -1.14514 21.2866 -1.14514 16.7059 3.43543L3.43543 16.7059ZM30.8058 30.8058C34.0123 27.5994 34.0123 22.4006 30.8058 19.1942C27.5994 15.9877 22.4006 15.9877 19.1942 19.1942C15.9877 22.4006 15.9877 27.5994 19.1942 30.8058C22.4006 34.0123 27.5994 34.0123 30.8058 30.8058Z" fill="#7E7E7E"/>
</svg>
