<svg width="250" height="251" viewBox="0 0 250 251" fill="none" xmlns="http://www.w3.org/2000/svg">
<rect x="0.5" y="142.575" width="118.152" height="107.925" rx="9.5" fill="#8A8A8A" fill-opacity="0.17" stroke="#3A3A3A"/>
<rect x="36.86" y="153.004" width="34.717" height="8.37881" rx="4.1894" fill="#5B5B5B"/>
<rect x="24.4305" y="166.119" width="54.4328" height="8.37881" rx="4.1894" fill="#363636"/>
<rect x="13.7153" y="153.004" width="19.7158" height="8.37881" rx="4.1894" fill="#4F4F4F"/>
<rect x="66.4337" y="179.234" width="36.86" height="8.37881" rx="4.1894" fill="#2D2D2D"/>
<rect x="83.5778" y="166.119" width="19.7158" height="8.37881" rx="4.1894" fill="#4B4B4B"/>
<rect x="24.4305" y="179.234" width="39.4316" height="8.37881" rx="4.1894" fill="#3F3F3F"/>
<rect x="75.4344" y="153.004" width="27.8593" height="8.37881" rx="4.1894" fill="#363636"/>
<rect x="30.0023" y="230.964" width="41.5746" height="8.37881" rx="4.1894" fill="#363636"/>
<rect x="16.7156" y="218.578" width="54.4328" height="8.37881" rx="4.1894" fill="#2D2D2D"/>
<rect x="75.4344" y="218.578" width="27.8593" height="8.37881" rx="4.1894" fill="#363636"/>
<rect x="89.5783" y="205.828" width="14.1439" height="8.37881" rx="4.1894" fill="#363636"/>
<rect x="75.4344" y="230.964" width="27.8593" height="8.37881" rx="4.1894" fill="#4B4B4B"/>
<rect x="13.7153" y="205.828" width="73.2914" height="8.37881" rx="4.1894" fill="#737373"/>
<rect x="135.003" y="142.575" width="114.497" height="97.7242" rx="9.5" fill="#D9D9D9" fill-opacity="0.08" stroke="#3A3A3A"/>
<rect x="156.522" y="167.175" width="71.0432" height="9.62143" rx="4.81071" fill="#737373"/>
<rect x="156.522" y="185.581" width="71.0432" height="9.62143" rx="4.81071" fill="#737373"/>
<rect x="156.522" y="203.987" width="71.0432" height="9.62143" rx="4.81071" fill="#4C5556"/>
<rect x="61.9035" y="0.5" width="114.497" height="129.054" rx="9.5" fill="#D9D9D9" fill-opacity="0.04" stroke="#3A3A3A"/>
<rect x="72.6208" y="63.3876" width="29.082" height="5.10014" fill="#302D2D"/>
<rect x="72.6208" y="111.475" width="29.082" height="5.10014" fill="#302D2D"/>
<rect x="72.6208" y="79.4165" width="88.9078" height="5.10014" fill="#302D2D"/>
<rect x="72.6208" y="17.4862" width="90.5696" height="5.10014" fill="#302D2D"/>
<rect x="72.6208" y="32.7866" width="90.5696" height="5.10014" fill="#302D2D"/>
<rect x="72.6208" y="95.8098" width="90.5696" height="5.10014" fill="#302D2D"/>
<rect x="72.6208" y="48.0869" width="90.5696" height="5.10014" fill="#302D2D"/>
</svg>